<?xml version="1.0" standalone="no"?>
<!DOCTYPE svg PUBLIC "-//W3C//DTD SVG 20010904//EN"
 "http://www.w3.org/TR/2001/REC-SVG-20010904/DTD/svg10.dtd">
<svg version="1.0" xmlns="http://www.w3.org/2000/svg"
 width="760.000000pt" height="328.000000pt" viewBox="0 0 760.000000 328.000000"
 preserveAspectRatio="xMidYMid meet">

<g transform="translate(0.000000,328.000000) scale(0.100000,-0.100000)"
fill="#000000" stroke="none">
<path d="M2584 3149 c-61 -4 -135 -12 -165 -17 -30 -6 -74 -14 -99 -17 -25 -4
-58 -9 -75 -11 -16 -2 -54 -11 -84 -20 -29 -8 -60 -13 -68 -10 -8 3 -12 2 -9
-2 6 -9 -86 -37 -121 -36 -12 0 -20 -3 -17 -7 5 -9 -171 -70 -208 -72 -14 -1
-26 -5 -25 -8 1 -4 -59 -37 -133 -74 -74 -38 -148 -78 -163 -91 -16 -13 -34
-24 -40 -24 -7 0 -23 -9 -37 -20 -31 -25 -36 -25 -43 -1 -3 13 -11 18 -23 16
-69 -14 -76 -17 -71 -29 7 -18 -35 -8 -45 10 -8 13 -44 8 -65 -9 -9 -6 -18 -5
-28 3 -11 9 -37 10 -102 4 -49 -4 -101 -7 -118 -6 -16 1 -24 -1 -17 -4 20 -9
14 -27 -7 -21 -14 3 -18 1 -14 -9 3 -8 -1 -14 -11 -14 -9 0 -21 -9 -28 -20 -7
-11 -18 -20 -25 -20 -7 0 -10 -7 -7 -15 5 -11 -1 -15 -18 -15 -13 0 -33 -6
-44 -14 -15 -11 -22 -12 -33 -3 -12 10 -14 9 -8 -5 5 -14 -2 -21 -27 -32 -19
-8 -39 -22 -45 -33 -11 -16 -11 -15 -6 7 5 24 5 24 -6 3 -6 -12 -20 -24 -31
-26 -11 -3 -17 -10 -14 -15 8 -13 -19 -23 -39 -16 -11 5 -13 2 -9 -10 4 -12 0
-16 -16 -16 -16 0 -20 -4 -16 -15 3 -8 1 -15 -4 -15 -6 0 -13 0 -17 -1 -13 -2
-98 -84 -95 -92 1 -4 -2 -6 -6 -5 -15 5 -134 -131 -126 -143 4 -7 3 -9 -3 -6
-5 3 -42 -30 -82 -74 -40 -43 -70 -79 -68 -79 3 0 33 9 68 20 35 10 168 49
294 85 127 36 284 82 350 102 l120 35 116 117 c301 306 635 507 1034 625 253
74 430 104 678 113 97 3 175 8 173 10 -14 15 -175 27 -272 22z m-1317 -462
c-18 -11 -40 -26 -50 -35 -10 -9 -28 -17 -40 -18 -20 -3 -20 -2 3 9 36 17 52
35 44 49 -5 8 -2 9 10 5 10 -4 23 1 34 11 10 11 20 14 24 8 4 -5 -8 -19 -25
-29z m-239 21 c9 -9 12 -9 12 0 0 7 5 12 10 12 6 0 10 -18 10 -39 0 -29 5 -41
18 -44 16 -4 16 -5 0 -6 -10 0 -23 5 -30 13 -10 10 -17 11 -30 2 -35 -22 -74
27 -48 59 15 18 42 19 58 3z m135 -102 c-3 -4 -9 -2 -14 5 -13 22 -11 31 5 17
8 -7 12 -17 9 -22z m-25 -21 c-3 -3 -13 -2 -22 1 -14 5 -15 9 -4 15 13 8 36
-6 26 -16z m-83 -35 c-3 -5 -2 -10 4 -10 5 0 12 6 14 13 4 9 6 9 6 0 1 -7 -8
-17 -18 -23 -16 -8 -19 -7 -16 8 5 23 4 22 11 22 3 0 2 -4 -1 -10z"/>
<path d="M984 2689 c-10 -17 13 -36 27 -22 12 12 4 33 -11 33 -5 0 -12 -5 -16
-11z"/>
<path d="M1105 2830 c3 -5 8 -10 11 -10 2 0 4 5 4 10 0 6 -5 10 -11 10 -5 0
-7 -4 -4 -10z"/>
<path d="M1166 2342 c-3 -5 -4 -55 -4 -113 l2 -104 -130 -6 c-148 -8 -206 -23
-290 -77 -121 -78 -183 -176 -207 -325 -29 -184 64 -361 234 -444 89 -44 165
-54 369 -51 l175 3 0 560 0 560 -72 3 c-39 2 -74 -1 -77 -6z m-1 -672 l0 -295
-114 -3 c-141 -3 -203 13 -261 69 -65 63 -94 131 -94 219 0 96 33 169 104 233
66 59 125 76 260 74 l105 -2 0 -295z"/>
<path d="M2244 2337 c-3 -8 -4 -214 -2 -458 3 -443 3 -444 27 -497 27 -60 75
-106 140 -135 36 -16 73 -22 174 -25 l127 -4 0 71 0 71 -89 0 c-49 0 -102 5
-118 11 -42 15 -92 68 -103 109 -5 19 -10 137 -10 262 l0 227 143 3 142 3 3
73 3 72 -145 0 -145 0 -3 113 -3 112 -68 3 c-50 2 -69 -1 -73 -11z"/>
<path d="M7157 2343 c-4 -3 -7 -69 -7 -145 0 -76 -3 -138 -7 -138 -3 0 -31 12
-62 27 -108 53 -255 42 -350 -28 l-41 -29 0 40 0 40 -80 0 -80 0 0 -440 0
-440 80 0 80 0 0 268 c0 293 6 333 56 399 38 50 122 87 180 79 40 -5 93 -28
135 -58 13 -9 23 -7 47 10 16 12 32 22 35 22 3 0 7 -114 9 -252 3 -239 4 -256
26 -303 30 -66 83 -119 146 -146 40 -17 76 -23 164 -27 l112 -5 0 72 0 71 -78
0 c-102 0 -156 26 -192 90 -25 45 -25 48 -25 285 l0 240 148 3 148 3 -3 67 -3
67 -145 5 -145 5 -3 113 -3 112 -68 0 c-37 0 -71 -3 -74 -7z"/>
<path d="M7555 2325 c-42 -41 -28 -116 25 -145 17 -9 18 -5 18 80 0 50 -4 90
-9 90 -6 0 -21 -11 -34 -25z m35 -62 c-1 -53 -2 -56 -15 -39 -18 23 -19 50 -5
77 17 30 20 23 20 -38z"/>
<path d="M1797 2109 c-133 -15 -282 -110 -340 -218 -53 -96 -74 -203 -59 -296
27 -160 97 -257 239 -327 76 -38 93 -42 171 -45 53 -2 107 2 137 10 l50 13 3
73 c3 65 1 73 -14 67 -86 -33 -203 -32 -269 2 -51 26 -106 84 -136 142 -35 69
-34 185 4 262 16 32 49 76 76 100 66 59 129 78 264 78 l107 0 2 -372 3 -373
70 0 70 0 0 445 0 445 -155 1 c-85 1 -186 -2 -223 -7z"/>
<path d="M4625 2111 c-38 -10 -90 -37 -132 -69 l-33 -24 0 46 0 47 -57 -3 -58
-3 -6 -280 c-4 -154 -10 -351 -14 -437 l-8 -158 77 0 76 0 0 258 c0 281 7 333
54 400 39 57 98 87 171 87 80 0 138 -32 180 -99 l30 -49 3 -299 3 -298 74 0
75 0 0 253 c0 283 7 325 63 399 44 57 99 88 160 88 59 0 95 -18 139 -70 54
-63 58 -88 58 -394 l0 -276 81 0 81 0 -4 298 c-5 359 -8 374 -118 483 -57 58
-75 70 -134 88 -85 26 -100 26 -183 -1 -57 -18 -79 -33 -131 -85 l-64 -63 -44
49 c-25 28 -61 60 -80 71 -67 42 -180 60 -259 41z"/>
<path d="M3030 2100 c-190 -33 -339 -187 -369 -380 -28 -176 68 -373 221 -451
91 -46 216 -61 313 -36 l50 13 3 72 c2 40 2 72 0 72 -2 0 -21 -7 -43 -15 -22
-8 -70 -14 -107 -15 -56 0 -76 5 -129 33 -106 54 -159 142 -159 264 0 82 24
144 77 203 76 84 105 95 263 95 l135 0 0 -365 0 -365 70 0 70 0 0 440 0 440
-175 1 c-96 1 -195 -2 -220 -6z"/>
<path d="M3659 2103 c-15 -2 -51 -18 -80 -36 -74 -45 -109 -111 -109 -210 0
-86 24 -142 82 -191 67 -57 108 -66 314 -66 202 0 225 -5 249 -55 21 -45 19
-76 -8 -116 -36 -53 -63 -58 -349 -58 l-258 -1 0 -70 c0 -60 3 -70 18 -71 116
-3 540 1 565 6 48 11 88 33 129 73 52 49 72 113 66 211 -5 82 -20 120 -64 165
-59 58 -71 61 -299 64 -115 1 -221 5 -233 8 -68 15 -95 107 -48 161 l24 28
304 5 303 5 0 75 0 75 -290 1 c-159 1 -302 -1 -316 -3z"/>
<path d="M6063 2096 c-138 -34 -258 -128 -314 -248 -33 -70 -34 -77 -34 -194
0 -119 0 -121 38 -196 90 -182 293 -273 502 -225 l50 12 3 73 c2 39 -1 72 -5
72 -4 0 -30 -7 -57 -15 -96 -29 -202 -11 -281 49 -40 31 -91 131 -100 197 -14
96 45 238 119 288 61 40 104 50 229 51 l117 0 0 -112 c1 -62 1 -227 1 -365 l0
-253 79 0 80 0 0 440 0 440 -187 -1 c-113 0 -209 -6 -240 -13z"/>
<path d="M3332 1049 c-17 -18 -29 -36 -26 -41 3 -4 1 -8 -4 -8 -6 0 -20 -11
-33 -25 -25 -25 -46 -34 -33 -13 4 7 3 8 -5 4 -9 -6 -9 -11 0 -22 6 -8 7 -14
2 -14 -5 0 -17 -14 -27 -30 -9 -17 -22 -27 -28 -24 -7 5 -8 2 -3 -6 6 -10 4
-12 -7 -7 -9 3 -21 0 -28 -6 -10 -9 -12 -9 -8 3 6 16 4 16 -79 21 -29 2 -43 8
-43 17 0 8 6 12 15 8 8 -3 15 -1 15 4 0 16 -32 12 -52 -7 -16 -14 -18 -15 -18
0 0 9 -5 19 -12 23 -6 4 -8 3 -5 -3 4 -6 -12 -17 -36 -25 -34 -11 -44 -11 -44
-2 0 7 4 11 9 8 4 -3 8 0 8 5 0 6 -7 11 -15 11 -8 0 -15 -9 -15 -20 0 -11 -5
-20 -11 -20 -6 0 -9 6 -6 13 7 19 -35 16 -59 -3 -16 -13 -17 -13 -10 0 6 12 5
11 -6 -1 -15 -18 -58 -32 -103 -34 -72 -2 -134 -33 -118 -58 2 -4 0 -6 -5 -5
-6 2 -52 -38 -104 -87 -205 -199 -364 -303 -638 -420 -148 -64 -182 -77 -195
-81 -5 -1 -57 -18 -115 -37 -112 -37 -141 -45 -290 -77 -188 -40 -363 -63
-502 -64 -129 -1 -135 -2 -90 -13 34 -9 197 -13 608 -13 l561 0 104 29 c339
96 654 251 924 455 117 89 311 276 433 418 107 125 173 228 94 147z m-507
-159 c-3 -5 -12 -10 -18 -10 -7 0 -6 4 3 10 19 12 23 12 15 0z m120 -10 c18
-8 17 -9 -7 -9 -16 -1 -28 4 -28 9 0 12 8 12 35 0z m90 -20 c-3 -5 -15 -10
-25 -10 -10 0 -22 5 -25 10 -4 6 7 10 25 10 18 0 29 -4 25 -10z m60 -88 c-3
-3 -11 0 -18 7 -9 10 -8 11 6 5 10 -3 15 -9 12 -12z"/>
<path d="M3140 995 c0 -8 38 -11 55 -5 15 6 10 8 -17 8 -21 0 -38 -1 -38 -3z"/>
<path d="M3109 972 c-11 -14 -11 -15 0 -5 7 6 20 9 27 6 8 -3 14 -3 14 0 0 14
-30 14 -41 -1z"/>
<path d="M3170 969 c-12 -9 -11 -10 8 -6 22 5 27 -4 23 -43 -2 -13 0 -13 8 -1
10 15 0 53 -15 58 -5 1 -16 -2 -24 -8z"/>
<path d="M3015 940 c-3 -5 -2 -10 4 -10 5 0 13 5 16 10 3 6 2 10 -4 10 -5 0
-13 -4 -16 -10z"/>
<path d="M2978 933 c7 -3 16 -2 19 1 4 3 -2 6 -13 5 -11 0 -14 -3 -6 -6z"/>
<path d="M3055 920 c-3 -5 -1 -10 4 -10 6 0 11 5 11 10 0 6 -2 10 -4 10 -3 0
-8 -4 -11 -10z"/>
<path d="M3105 910 c-4 -6 7 -10 25 -10 18 0 29 4 25 10 -3 6 -15 10 -25 10
-10 0 -22 -4 -25 -10z"/>
</g>
</svg>
